<svg xmlns="http://www.w3.org/2000/svg" fill="none" viewBox="0 0 193 48">
  <path fill="#fff" d="M0 0h193v48H0z"/>
  <g clip-path="url(#clip0)" filter="url(#filter0_dd)">
    <path fill="#fff" fill-rule="evenodd" d="M6 4a2 2 0 00-2 2v36c0 1.1.9 2 2 2h181a2 2 0 002-2V6a2 2 0 00-2-2H6z" clip-rule="evenodd"/>
  </g>
  <g fill-rule="evenodd" clip-rule="evenodd">
    <path fill="#4285F4" d="M32.6 24.2l-.1-1.8H24v3.4h4.8C28.6 27 28 28 27 28.6v2.2h3a8.8 8.8 0 002.6-6.6z"/>
    <path fill="#34A853" d="M24 33c2.4 0 4.5-.8 6-2.2l-3-2.2a5.4 5.4 0 01-8-2.9h-3V28a9 9 0 008 5z"/>
    <path fill="#FBBC05" d="M19 25.7a5.4 5.4 0 010-3.4V20h-3a9 9 0 000 8l3-2.3z"/>
    <path fill="#EA4335" d="M24 18.6c1.3 0 2.5.4 3.4 1.3l2.6-2.6A9 9 0 0016 20l3 2.4a5.4 5.4 0 015-3.7z"/>
  </g>
  <path fill="#000" fill-opacity=".5" d="M60.2 26.4c0-.4-.1-.7-.5-1-.3-.2-.8-.5-1.6-.7a8 8 0 01-2-.8c-.8-.6-1.3-1.3-1.3-2.2 0-.8.3-1.5 1-2a4 4 0 012.5-.8c.7 0 1.4.1 1.9.4.5.2 1 .6 1.3 1 .3.6.4 1 .4 1.7h-1.7c0-.6-.2-1-.5-1.3-.3-.3-.8-.4-1.4-.4-.5 0-1 .1-1.3.4-.3.2-.5.5-.5 1 0 .3.2.6.5.9l1.7.7c.8.2 1.4.5 1.9.8a2.6 2.6 0 011.4 2.3c0 .9-.4 1.5-1 2s-1.5.7-2.6.7a5 5 0 01-2-.4c-.6-.2-1-.6-1.4-1-.3-.5-.5-1-.5-1.7h1.7c0 .6.2 1 .6 1.3.4.3 1 .5 1.6.5.6 0 1-.2 1.4-.4.3-.2.4-.6.4-1zm5 2.6h-1.6v-7.4h1.7V29zm-1.7-9.3c0-.3.1-.5.3-.7l.7-.2c.3 0 .5 0 .7.2l.2.7c0 .2 0 .4-.2.6-.2.2-.4.3-.7.3-.3 0-.6-.1-.7-.3a.9.9 0 01-.3-.6zm3.5 5.5c0-1.1.3-2 .8-2.7.6-.7 1.3-1 2.2-1 .8 0 1.5.3 2 .8v-.7h1.6v7.2a3 3 0 01-1 2.3c-.6.5-1.4.8-2.4.8a4 4 0 01-1.6-.3c-.5-.3-.9-.5-1.2-1l.8-1c.5.7 1.2 1 2 1 .5 0 .9-.2 1.2-.5.3-.2.5-.7.5-1.3v-.5c-.5.6-1.1.8-2 .8-.8 0-1.5-.3-2-1-.6-.7-.9-1.6-.9-2.9zm1.7.2c0 .7.1 1.3.4 1.7.3.5.8.7 1.3.7.7 0 1.2-.3 1.5-.9v-3.2c-.3-.6-.8-.9-1.5-.9-.5 0-1 .2-1.3.7-.3.4-.4 1-.4 1.9zm8.3-3.8v.9c.6-.7 1.3-1 2.2-1 1.6 0 2.3.8 2.4 2.6V29h-1.7v-4.8c0-.5 0-.8-.3-1-.2-.3-.5-.4-1-.4-.7 0-1.2.3-1.5 1V29h-1.6v-7.4H77zM89 29h-1.7v-7.4H89V29zm-1.8-9.3c0-.3 0-.5.2-.7l.7-.2c.3 0 .6 0 .7.2.2.2.3.4.3.7l-.3.6c-.1.2-.4.3-.7.3-.3 0-.5-.1-.7-.3a.9.9 0 01-.2-.6zm5.3 1.9v.9c.6-.7 1.4-1 2.2-1 1.6 0 2.4.8 2.4 2.6V29h-1.7v-4.8c0-.5 0-.8-.3-1-.2-.3-.5-.4-1-.4-.6 0-1.1.3-1.5 1V29H91v-7.4h1.5zm16.7 5.1l1.2-5.1h1.6l-2 7.4h-1.4l-1.6-5-1.5 5H104l-2-7.4h1.6l1.2 5 1.5-5h1.3l1.5 5.1zm6 2.3h-1.8v-7.4h1.7V29zm-1.9-9.3c0-.3.1-.5.3-.7l.7-.2c.3 0 .5 0 .7.2l.2.7c0 .2 0 .4-.2.6a1 1 0 01-.7.3c-.3 0-.6-.1-.7-.3a.9.9 0 01-.3-.6zm6 .1v1.8h1.2v1.2h-1.3V27c0 .2 0 .5.2.6l.6.2.6-.1V29a4 4 0 01-1.1.1c-1.3 0-2-.7-2-2v-4.3h-1.2v-1.2h1.3v-1.8h1.6zm4.4 2.6c.5-.6 1.2-1 2-1 1.6 0 2.4 1 2.4 2.8V29h-1.6v-4.8c0-.5-.2-.8-.4-1-.2-.3-.5-.4-1-.4-.6 0-1.1.3-1.4 1V29H122V18.5h1.7v4zm17.8 5.3c-.3.5-.8.8-1.5 1-.6.3-1.3.4-2.2.4-.8 0-1.5-.2-2.2-.5-.6-.4-1.1-1-1.5-1.7-.3-.7-.5-1.5-.5-2.4v-.8c0-1.5.4-2.7 1-3.5.8-.9 1.8-1.3 3-1.3a4 4 0 012.7.8c.7.6 1 1.4 1.2 2.4h-1.7c-.2-1.2-.9-1.8-2-1.8a2 2 0 00-1.8.8c-.4.6-.7 1.4-.7 2.5v.8c0 1 .3 1.9.7 2.5.5.6 1.1.9 1.9.9.9 0 1.5-.2 1.9-.6v-2h-2V24h3.7v3.8zm1.7-2.5c0-.7.1-1.3.4-2 .3-.5.7-1 1.2-1.3.5-.3 1.1-.4 1.8-.4 1 0 1.8.3 2.4 1 .6.6 1 1.4 1 2.5v.4c0 .7-.1 1.4-.4 2a3 3 0 01-1.2 1.3c-.5.3-1.1.4-1.8.4-1 0-1.9-.3-2.5-1a4 4 0 01-1-2.8zm1.6.2c0 .7.2 1.3.5 1.8.3.4.7.6 1.3.6.6 0 1-.2 1.3-.6.3-.5.5-1.1.5-2a3 3 0 00-.5-1.7c-.3-.5-.8-.7-1.3-.7s-1 .2-1.3.6c-.3.5-.5 1.1-.5 2zm6.6-.2c0-.7 0-1.3.4-2 .3-.5.7-1 1.2-1.3.5-.3 1.1-.4 1.8-.4 1 0 1.8.3 2.4 1 .6.6 1 1.4 1 2.5v.4c0 .7-.1 1.4-.4 2a3 3 0 01-1.2 1.3c-.5.3-1.1.4-1.8.4-1 0-1.9-.3-2.5-1a4 4 0 01-1-2.8zm1.6.2c0 .7.2 1.3.5 1.8.3.4.7.6 1.3.6.6 0 1-.2 1.3-.6.3-.5.5-1.1.5-2a3 3 0 00-.5-1.7c-.3-.5-.8-.7-1.3-.7-.6 0-1 .2-1.3.6-.3.5-.5 1.1-.5 2zm6.6-.2c0-1.1.2-2 .8-2.7.5-.7 1.2-1 2.1-1 .9 0 1.5.3 2 .8v-.7h1.6v7.2a3 3 0 01-1 2.3c-.5.5-1.3.8-2.4.8a4 4 0 01-1.6-.3c-.5-.3-.9-.5-1.1-1l.8-1c.5.7 1 1 1.8 1 .6 0 1-.2 1.3-.5.4-.2.5-.7.5-1.3v-.5c-.5.6-1.1.8-1.9.8-.9 0-1.6-.3-2.1-1-.6-.7-.8-1.6-.8-2.9zm1.6.2c0 .7.2 1.3.5 1.7.3.5.7.7 1.2.7.7 0 1.2-.3 1.5-.9v-3.2c-.3-.6-.8-.9-1.5-.9-.5 0-1 .2-1.2.7-.3.4-.5 1-.5 1.9zm8.6 3.6H168V18.5h1.7V29zm5.3.1c-1 0-2-.3-2.6-1-.6-.6-1-1.5-1-2.6v-.2c0-.8.2-1.4.5-2 .2-.6.6-1 1.2-1.3.5-.4 1-.5 1.7-.5 1 0 1.8.3 2.3 1 .6.6.8 1.5.8 2.7v.6h-4.8c0 .6.3 1.1.6 1.5.4.3.8.5 1.4.5.7 0 1.3-.3 1.8-1l1 1a3 3 0 01-1.3 1c-.5.2-1 .3-1.6.3zm-.2-6.3c-.5 0-.9.2-1.1.5-.3.3-.5.7-.6 1.3h3.2v-.1c0-.6-.2-1-.4-1.3-.3-.3-.7-.4-1.1-.4z"/>
  <defs>
    <clipPath id="clip0">
      <path fill="#fff" d="M0 0h185v40H0z" transform="translate(4 4)"/>
    </clipPath>
    <filter id="filter0_dd" width="187" height="43" x="3" y="3" color-interpolation-filters="sRGB" filterUnits="userSpaceOnUse">
      <feFlood flood-opacity="0" result="BackgroundImageFix"/>
      <feColorMatrix in="SourceAlpha" result="hardAlpha" values="0 0 0 0 0 0 0 0 0 0 0 0 0 0 0 0 0 0 127 0"/>
      <feOffset dy="1"/>
      <feGaussianBlur stdDeviation=".5"/>
      <feColorMatrix values="0 0 0 0 0 0 0 0 0 0 0 0 0 0 0 0 0 0 0.24 0"/>
      <feBlend in2="BackgroundImageFix" result="effect1_dropShadow"/>
      <feColorMatrix in="SourceAlpha" result="hardAlpha" values="0 0 0 0 0 0 0 0 0 0 0 0 0 0 0 0 0 0 127 0"/>
      <feOffset/>
      <feGaussianBlur stdDeviation=".5"/>
      <feColorMatrix values="0 0 0 0 0 0 0 0 0 0 0 0 0 0 0 0 0 0 0.12 0"/>
      <feBlend in2="effect1_dropShadow" result="effect2_dropShadow"/>
      <feBlend in="SourceGraphic" in2="effect2_dropShadow" result="shape"/>
    </filter>
  </defs>
</svg>
