<svg xmlns="http://www.w3.org/2000/svg" viewBox="0 0 113.8 87.8">
  <path fill="#32393c" d="M13 37.9C3.8 37.9.5 33 .5 27.6V11.2C.5 6.3 3.9 0 13.5 0c8.6 0 11.6 5.3 11.6 9v4.8l-8.4.3V9.8c0-1.6-1.1-3-3.4-3-2.5 0-4 1.4-4 4.1v16.2c0 2.7 1.4 3.8 4 3.8a3.1 3.1 0 003.4-3.2v-4.3l8.4.3V29c0 3.3-2.7 8.9-12.1 8.9zM38.8 37.8c-8.4 0-10.7-4.2-10.7-7.1V15c0-2.5 2.4-7.1 10.9-7.1s10.7 4.6 10.7 7.1v15.7c0 2.6-1.9 7-11 7zm.2-5a2 2 0 002.4-2.3V15c0-1.2-.5-2.2-2.4-2.2-1.7 0-2.5 1-2.5 2.2v15.4c0 1.6.7 2.4 2.5 2.4zM59.8 37.8c-4.9 0-6.8-3-6.8-5.8V14c0-2.5 1.7-6.2 7.3-6.2A10.2 10.2 0 0166 9.5V1h8.3V37h-7.5l-.3-2.8a8.3 8.3 0 01-6.7 3.6zm3.6-5.8a2.6 2.6 0 002.6-2.7V15.7a2.5 2.5 0 00-2.5-2.6c-1.6 0-2.2.9-2.2 2.4v14.2c0 1.4.6 2.3 2.1 2.3zM88.1 37.8C80.5 37.8 78 34 78 30.6V15.1c0-3.6 3.4-7.2 10.4-7.2 7.3 0 10.1 3.4 10.1 6.6v9.7H86.3v5.4c0 1.6.6 2.9 2.4 2.9 1.6 0 2.2-.8 2.2-2.5v-3l7.4.2V30c0 4-2.6 7.8-10.2 7.8zm-1.8-18.6h4.5v-4.6a1.9 1.9 0 00-2.1-2.1c-1.6 0-2.4.8-2.4 2zM11.6 82.2C2.2 82.2 0 78 0 75.1v-5.3l8.4-.3V73c0 1.3.7 2.3 3.3 2.3 2.8 0 3.6-1.4 3.6-4.2 0-2.2-.9-3.4-3.5-4.6l-4.7-2C2.7 62.6 0 60.2 0 54.7c0-6.3 3.6-10.4 12.4-10.4 8.5 0 11.1 4 11.1 6.9v5l-8.1.4v-3.3c0-1.2-.8-2.4-3.1-2.4s-3.5.8-3.5 3.3c0 2.2 1 3.2 4 4.5l3.6 1.7c5.6 2.4 7.7 4.7 7.7 10.1 0 7-3 11.7-12.5 11.7zM37 82.2c-6.7 0-8-3.6-8-8V59h-3v-6h3v-5l8.3-1v6h4.9v6h-4.9v14.5c0 1.7.7 2.6 2.7 2.6h2.3l-.4 5.8a32.6 32.6 0 01-4.9.3zM55 82.1c-8.3 0-10.6-4.2-10.6-7V59.2c0-2.5 2.4-7.1 10.9-7.1s10.7 4.7 10.7 7V75c0 2.6-1.9 7.1-11 7.1zm.3-5a2 2 0 002.4-2.3V59.3c0-1.2-.5-2.2-2.4-2.2-1.7 0-2.5.9-2.5 2.2v15.5c0 1.5.7 2.3 2.5 2.3zM69.6 81.3V53h7.6l.1 3.3a7.3 7.3 0 016.8-4c4 0 6 2.3 6 6.4v5.1l-8.2.5v-4c0-1.4-.3-2-1.4-2-1.7 0-2.6 1.5-2.6 3.3v19.8zM97.7 87.8l2.7-10h-4l-4.6-22V53h8l2.9 19.3h.1l3.4-19.3h7.6v2.9l-6.1 23.9-2 8z"/>
</svg>
