<svg data-name="Layer 1" xmlns="http://www.w3.org/2000/svg" viewBox="0 0 800 380.4">
  <path d="M447.6 175.3c-20.4 0-27.7-10.6-27.7-23V116c0-10.7 7.6-24.7 29-24.7 19 0 25.6 11.7 25.6 20v10.5l-18.7.7V113c0-3.5-2.5-6.7-7.5-6.7-5.6 0-8.7 3-8.7 9.1v36c0 5.8 3 8.3 8.7 8.3 4.9 0 7.5-3.2 7.5-7V143l18.7.7v11.7c0 7.4-6 19.8-27 19.8zM504.7 175c-18.4 0-23.5-9.3-23.5-15.7v-34.8c0-5.5 5.2-15.8 24-15.8 19 0 23.8 10.4 23.8 15.8v34.8c0 5.8-4.1 15.8-24.3 15.8zm.5-11c4 0 5.3-2.3 5.3-5.1v-34.4c0-2.8-1-4.8-5.3-4.8-3.8 0-5.5 2-5.5 4.8v34.3c0 3.4 1.6 5.2 5.5 5.2zM551.5 175c-10.9 0-15.2-6.6-15.2-12.7v-40.1c0-5.5 3.7-13.6 16.2-13.6a22.6 22.6 0 0112.7 3.8V93.2h18.5v80.1h-16.8l-.6-6.2a18.6 18.6 0 01-14.8 8zm8-12.8a5.9 5.9 0 005.7-6v-30.1c0-3.2-2.1-5.9-5.5-5.9s-5 2-5 5.5v31.5c0 3 1.3 5 4.8 5zM614.2 175c-16.9 0-22.6-8.3-22.6-15.8v-34.5c0-8 7.5-16 23-16 16.1 0 22.4 7.5 22.4 14.7v21.4h-27v12c0 3.6 1.3 6.5 5.4 6.5 3.5 0 4.8-1.7 4.8-5.6V151l16.5.5v6.3c0 9-5.8 17.3-22.5 17.3zm-4.2-41.2h10v-10.3c0-2.7-1.4-4.5-4.7-4.5-3.5 0-5.3 1.8-5.3 4.5zM444.6 273.5c-20.8 0-25.8-9.5-25.8-15.8v-11.6l18.8-.7v7.4c0 3 1.5 5.2 7.2 5.2 6.3 0 8-3 8-9.3-.2-4.9-2-7.6-7.8-10.1l-10.5-4.5c-9.7-4-15.7-9.4-15.7-21.6 0-14 8-23 27.5-23 18.9 0 24.7 8.7 24.7 15.2V216l-18 .8v-7.3c0-2.7-1.8-5.5-7-5.5-5.4 0-7.6 1.9-7.7 7.3-.2 5 2.2 7.2 8.9 10.2l8.1 3.6c12.3 5.4 17 10.5 17 22.6 0 15.2-6.8 25.8-27.7 25.8zM501 273.4c-15 0-17.9-7.8-17.9-17.6V222h-6.8v-13.4h6.8v-11l18.5-2v13h10.8V222h-10.8v32.1c0 3.9 1.4 5.7 5.8 5.7h5.2l-.8 12.8a74.3 74.3 0 01-10.8.8zM540.9 273.3c-18.5 0-23.6-9.3-23.6-15.7v-34.9c0-5.4 5.2-15.7 24-15.7 19 0 23.8 10.4 23.8 15.7v34.9c0 5.8-4.1 15.7-24.2 15.7zm.4-11c4 0 5.3-2.3 5.3-5.2v-34.4c0-2.7-1-4.8-5.3-4.8-3.7 0-5.5 2-5.5 4.8V257c0 3.4 1.7 5.3 5.5 5.3zM573.1 271.6v-63h16.8l.4 7.2a16 16 0 0115-9c8.9 0 13.5 5.3 13.5 14.3v11.4l-18.4 1V225c0-3.2-.7-4.6-3-4.6-3.8 0-6 3.2-6 7.2v44.1zM635.5 286l5.9-22h-9L622.2 215v-6.3h18l6 42.8h.4l7.5-42.8H671v6.3l-13.5 53-4.3 17.9zM360.3 247.5c6.5 2.6 9.2 7.8 10.7 13.8l1.2 5.3a20.7 20.7 0 005.5 10.6 30.3 30.3 0 016.3 9.3c2.4 5.6 1.2 10.3-3.6 14.3a44.7 44.7 0 01-9 5.2l-11.1 5.5A48.5 48.5 0 00345 323a45 45 0 01-20.2 13.8c-9.5 3-18.7 2.7-26.8-4.2-3.7-3-5.9-7-7.6-11.5-9.3.6-18.3-1.6-27.4-2.4-7.2-.5-14.3.7-21.3 2a105.9 105.9 0 01-13.3 1.9 24.7 24.7 0 01-21.8 12.6 46.9 46.9 0 01-23.5-4.9c-10-5-20.6-7.1-31.6-8a66.8 66.8 0 01-10-1.6c-10.5-2.5-14.2-8.4-11.9-18.6a5.7 5.7 0 01.4-1.2c3-6.8 2.2-13.6 1-20.6-1-5.3-.4-10.4 3.5-14.7a15.8 15.8 0 017.9-5 26.8 26.8 0 0017.2-12.6 35.7 35.7 0 013.9-4.5c.4-2.1-.4-4.3-.4-6.5 0-10.3 2.4-20 6.2-29.5a177 177 0 0125.5-42.5c3.6-4.5 7.6-8.7 10.8-13.6a67.2 67.2 0 0010.3-43 179.7 179.7 0 01-.5-27.3 58 58 0 014.2-18.6c5.7-13.5 16.7-20.5 31.2-23a76.6 76.6 0 0111.7-1.2 53.3 53.3 0 015.7.2 52 52 0 0112.9 2.7 37.8 37.8 0 0123.4 24.2 98.8 98.8 0 015 32c.2 5.4.3 10.8 0 16.2a48.5 48.5 0 009.7 30.5c4.8 7 10.5 13.3 15.8 19.9 9.8 12 18.3 24.9 23.6 39.5 5.3 14.3 6.4 28.9 1.6 44zm-159.9-71.4c-7 10.3-13.1 21-16.3 33a39.2 39.2 0 00-.6 20.8c2.4 8.3 7.8 14.3 15.3 18.8s14.8 9.6 20.7 16c3.2 3.6 6 7.4 7.1 12 1.3 5.2-1 8.9-6.3 10.2-1 .3-2.2.5-3.6.7l8.5 11.4a3.9 3.9 0 001 .8 52.2 52.2 0 0023.7 7.9c16.5 1.3 31-3.8 44.4-12.7 1.4-4.1 2.6-8.2 3.5-12.3a38.6 38.6 0 00.9-7.3 126 126 0 011.3-15c1.5-9.2 4-18 14-22a6.8 6.8 0 00.3-1c1.3-7.3 5.5-10.3 13-9.1a45.3 45.3 0 0120 8.5c3 2.2 4.7 5 4 8.8-.1.3.1.6.2.9.8 0 1.6.2 2.2-.6 1.2-4.7-.4-8.4-4.1-11.6a46.1 46.1 0 00-4.5-3.2c-3-2-6.5-3.4-10-5.3a49 49 0 00-3.7-30.4c-4.5-10.5-14-22.9-19-24.7.3 2 1.8 3 3 4.2 10 10.6 16 23 16 37.6a26.9 26.9 0 01-2.4 11.3l-6.4-.7a126 126 0 00-13-35.4 300.5 300.5 0 01-23.4-56.6c0-.4.2-1.1-.8-1.2a29 29 0 01-13.6 8.3 26.5 26.5 0 00-5.2 2.7c-1.9 1.2-3.7 2.3-5.7 3.3a23.4 23.4 0 01-15.5 2.3 21.6 21.6 0 01-10.2-5.4 32.4 32.4 0 00-9.6-6.6c-.9 11.1-4.2 21.3-8.2 31.3-4.2 10.9-9.4 21.3-14.4 31.8a105 105 0 00-7.2 20.7 128.6 128.6 0 00-2.5 17.1 6.5 6.5 0 01-2-2.6 32.3 32.3 0 01-4.4-17.1 53.8 53.8 0 015.4-21.8c2.1-4.6 4.6-9 6.9-13.4.6-1.4 1.5-2.8 1.2-4.4zm4 155.1a28.4 28.4 0 009.1-1.2 16.6 16.6 0 0012.7-15 17.8 17.8 0 00-2.4-10.4 72.7 72.7 0 00-7.5-11.1C211 286.8 205 280.6 201 273L190 254a23.7 23.7 0 00-8.3-8.5c-6-3.7-12.2-2.7-16.7 2.5a67.8 67.8 0 00-4.8 6.1 22.8 22.8 0 01-13.4 9.2 28.2 28.2 0 00-5.7 2.3 11 11 0 00-6.4 10 42.8 42.8 0 001 8.3c.8 5.2 1.2 10.3-1 15.3a20.6 20.6 0 00-1.4 10 6.8 6.8 0 003.7 5.7 19.7 19.7 0 004.5 1.8 77.7 77.7 0 0012.4 1.8c10 1 19.6 2.7 28.7 7.3a50 50 0 0021.7 5.5zm109.2-87.8c-1.1-.2-1.7.6-2.5 1.2a17 17 0 00-5.1 8 59.2 59.2 0 00-2.8 17 87.8 87.8 0 01-4.4 25 89 89 0 00-4.5 19.5c-1 10.6 8.6 22.4 23.4 20.3a37.6 37.6 0 0023.2-13c7-8 15.8-13.2 25.5-17.5a54.8 54.8 0 0010.6-5.7c4.2-3 5-6.1 2.7-10.8a31.2 31.2 0 00-5.8-8.3 22.3 22.3 0 01-5.5-10.7 84.7 84.7 0 00-2.7-9.8 12 12 0 00-10.7-8.2 22.8 22.8 0 00-6.3.2l-2.2 1.8a33 33 0 01-15.6 7.7 12.3 12.3 0 01-12.2-4.5 21 21 0 01-4.2-9.6c-.2-.9-.1-1.9-.9-2.6zm-64-98.7a23 23 0 0012-3.3c4.4-2.5 8.6-5 13.3-6.7a18.4 18.4 0 009.3-7.3c3-4.5 1.7-9.1-3-11.6a23 23 0 00-2.7-1.2 117.1 117.1 0 01-16.4-7c-10-5.5-19.6-5-28.1 3.5a35.6 35.6 0 01-4.6 3.6c-1.7 1.2-3.6 2.4-5.2 3.8-3.5 2.8-4 6-1.4 9.8a16 16 0 005.4 5 52.4 52.4 0 019.3 7 16.7 16.7 0 0012.1 4.4zm31.4-31.6c6.2-7 6.3-19.7.4-27.3-5.8-7.5-15.9-7.8-21.9-.4a21 21 0 00-4.3 17l7.7 2.5c.2-3-.1-5.9 1.2-8.5 1.3-2.5 2.8-4.8 6-4.7s4.7 2.4 5.7 5a13.3 13.3 0 01.5 1.5c1 4.4.5 8.5-2.8 12 2.3 2 5 2.3 7.5 2.9zm-37.2-10.5a21.9 21.9 0 00-2.9-13.9c-2-3.4-4.9-6.2-9.4-5.8s-6.9 3.6-8.3 7.3a23 23 0 003.5 23.2c1.9-.4 3.5-1.1 4.2-3-3.2-4.1-4.1-8.4-2.7-12.7.6-1.8 1.4-3.5 3.6-3.7s3.3 1.2 4.3 2.9c1.4 2.4 1.6 5.1 1.7 7.9a3.5 3.5 0 001 .1c2-.3 3-2.1 5-2.3z" fill="#232321"/>
  <path d="M200.4 176c.2 1.8-.6 3.1-1.3 4.5-2.2 4.5-4.7 8.8-6.8 13.4a53.8 53.8 0 00-5.5 21.8 32.3 32.3 0 004.4 17 6.5 6.5 0 002 2.7 128.6 128.6 0 012.5-17 105 105 0 017.3-20.8c5-10.6 10.2-21 14.4-31.8 4-10 7.3-20.2 8.2-31.3a32.4 32.4 0 019.5 6.5 21.6 21.6 0 0010.3 5.5 23.4 23.4 0 0015.5-2.3c2-1 3.8-2.2 5.7-3.3a26.5 26.5 0 015.2-2.7 29 29 0 0013.5-8.3c1 0 .8.8 1 1.2a300.5 300.5 0 0023.3 56.6 126 126 0 0113 35.4l6.4.7a26.9 26.9 0 002.4-11.4c0-14.6-6-26.9-16-37.6-1.1-1.1-2.6-2-2.9-4 5 1.7 14.4 14.1 19 24.6a49 49 0 013.7 30.4c3.5 1.9 7 3.3 10 5.3a46.1 46.1 0 014.5 3.2c3.7 3.1 5.3 7 4.1 11.6-.6.8-1.4.6-2.2.6l-.3-.9c.8-3.8-1-6.6-4-8.8a45.3 45.3 0 00-19.9-8.5c-7.5-1.2-11.6 1.8-13 9.1a6.8 6.8 0 01-.3 1c-10 4-12.5 12.8-14 22a126 126 0 00-1.3 15 38.6 38.6 0 01-.9 7.3c-1 4-2.1 8.2-3.5 12.3-13.4 9-28 14-44.5 12.7a52.2 52.2 0 01-23.6-8 3.9 3.9 0 01-1-.7l-8.6-11.4 3.7-.7c5.2-1.3 7.5-5 6.2-10-1-4.8-3.9-8.6-7-12-6-6.6-13.1-11.7-20.7-16.2s-13-10.4-15.3-18.8c-2-7-1.3-13.9.5-20.8 3.2-12 9.4-22.7 16.3-33z" fill="#fefefe"/>
  <path d="M204.4 331.2a50 50 0 01-21.8-5.4c-9-4.7-18.7-6.4-28.7-7.4a77.7 77.7 0 01-12.3-1.8 19.7 19.7 0 01-4.5-1.8 6.8 6.8 0 01-3.7-5.7 20.6 20.6 0 011.4-10c2.2-5 1.8-10.1.9-15.3a42.8 42.8 0 01-.9-8.2 11 11 0 016.3-10 28.2 28.2 0 015.8-2.4 22.8 22.8 0 0013.4-9.2 67.8 67.8 0 014.7-6 12.2 12.2 0 0116.7-2.5 23.7 23.7 0 018.4 8.4l10.9 19.3c4 7.5 9.9 13.7 15.2 20.3a72.7 72.7 0 017.6 11.2 17.8 17.8 0 012.4 10.3 16.7 16.7 0 01-12.7 15 28.4 28.4 0 01-9.1 1.2zM313.6 243.4c.8.7.7 1.7.9 2.6a21 21 0 004.2 9.6 12.3 12.3 0 0012.2 4.5 33 33 0 0015.6-7.6l2.2-2a22.8 22.8 0 016.3 0c5.3.5 8.9 3.2 10.7 8a84.7 84.7 0 012.7 10 22.3 22.3 0 005.5 10.6 31.2 31.2 0 015.8 8.3c2.3 4.7 1.5 7.7-2.7 10.8a54.8 54.8 0 01-10.6 5.7 70.7 70.7 0 00-25.5 17.6 37.6 37.6 0 01-23.2 12.9c-14.8 2.1-24.4-9.7-23.4-20.3a89 89 0 014.5-19.5 87.8 87.8 0 004.4-25 59.2 59.2 0 012.7-17 17 17 0 015.2-8c.7-.6 1.3-1.4 2.5-1.2zM249.6 144.7a16.7 16.7 0 01-12-4.4 52.4 52.4 0 00-9.4-7 16 16 0 01-5.4-5c-2.5-3.7-2-7 1.4-9.8 1.7-1.4 3.5-2.6 5.3-3.8a35.6 35.6 0 004.5-3.6c8.5-8.5 18.2-9 28.2-3.5a117.1 117.1 0 0016.3 7 23 23 0 012.7 1.2c4.7 2.5 6 7.1 3 11.6a18.4 18.4 0 01-9.2 7.3c-4.8 1.7-9 4.2-13.3 6.7a23 23 0 01-12 3.3zm29-24.4c-1-1-1.7-.5-2.4.3a52.2 52.2 0 01-20.2 12.2 21.7 21.7 0 01-11.6 1.2c-7-1.4-12.3-5.3-17-10.3-.5-.7-.8-1.8-2.2-1.8-.7 1.4-.2 2.6.9 3.6a46.7 46.7 0 009.2 7.1c5.4 3 11.2 4.5 17.4 3a57 57 0 0024.6-13c.7-.6 1.5-1.2 1.3-2.3zm-38.3-9.8c1.5 1.9 2 1.8 5.6-.8-2.4-1.3-3-1.2-5.6.8zm13-.6c1.8.5 3.2 3 5.6 1.2-1.8-2.4-2.9-2.7-5.7-1.2z" fill="#fccb03"/>
  <path d="M281 113c-2.5-.5-5.2-.8-7.5-2.8 3.3-3.5 3.9-7.6 2.8-12a13.3 13.3 0 00-.5-1.5c-1-2.6-2.5-5-5.7-5s-4.7 2.3-6 4.7c-1.3 2.7-1 5.6-1.2 8.5l-7.7-2.5a21 21 0 014.3-17c6-7.4 16.1-7 21.9.4 6 7.6 5.8 20.4-.4 27.3zM243.8 102.6c-2 .2-3 2-5 2.3a3.5 3.5 0 01-1-.1c-.1-2.8-.2-5.5-1.7-8-1-1.6-2-3-4.3-2.8s-3 2-3.5 3.7c-1.5 4.3-.6 8.6 2.6 12.8-.7 1.8-2.3 2.5-4.2 2.9a23 23 0 01-3.4-23.2c1.4-3.7 3.8-6.8 8.2-7.3s7.3 2.4 9.4 5.8a21.9 21.9 0 013 14z" fill="#fefefe"/>
  <path d="M278.6 120.3c.2 1.1-.7 1.7-1.4 2.4a57 57 0 01-24.5 12.9c-6.2 1.5-12 0-17.4-3a46.7 46.7 0 01-9.2-7c-1.1-1-1.6-2.2-1-3.7 1.5 0 1.8 1.1 2.4 1.8 4.6 5 9.8 9 16.9 10.3a21.7 21.7 0 0011.6-1.2 52.2 52.2 0 0020.1-12.2c.8-.8 1.5-1.3 2.5-.3zM240.3 110.5c2.5-2 3.2-2 5.5-.8-3.5 2.6-4 2.7-5.5.8zM253.2 109.9c2.8-1.5 4-1.2 5.7 1.2-2.5 1.9-3.8-.7-5.7-1.2z" fill="#232321"/>
  <g data-name="4KvJgm">
    <path d="M164.2 151.4l2.3 17.3 82.6 34.4 80.6-27.7 10.6-10.2-3.2-15.2s-13.2-6.9-37.7 2.2-30 14.6-30 14.6l-18.2 12.7S234 163.2 212 155.3s-34.1-7.5-34.1-7.5z" fill="#fff"/>
    <path d="M258.2 267a45 45 0 01-7.4.7c-3.5 0-10.3-1.4-13.8-2-20-3.6-25-10.6-43.4-19.5a22.1 22.1 0 01-9.1-9c-3.4-7.7-4.8-12-8-20s-6.4-17-10.3-30.4a273.4 273.4 0 01-6.9-27 22.6 22.6 0 018-1.8c11.9 0 22.3 2.7 33 6.4 12 4.2 23.1 9.8 34.2 15.8 2.8 1.5 5.2 4 7.7 6 1.3 1 .2.4 1.5 1.4 3.3 2.7 12 2 14 .4 12.6-10.5 28.6-15.9 43.7-22.4a94.2 94.2 0 0125.8-6.8c6-.7 11.9-.9 18.3 1.2 0 3 .4 3.3.1 6-.8 8-10.4 36.8-11.6 40.6s-3.7 12-7.4 25.3c-5.3 11.5-8.5 17-19.4 21.9-12 5.3-11.5 5.8-24.4 8.8-4.6 1-20.2 3.7-24.1 4.4" fill="#fccb03"/>
    <path d="M250.8 271.2c-3.1 0-8.3-1-12-1.7l-2.3-.4a76.8 76.8 0 01-29.6-11.7c-4-2.4-8.6-5.2-14.6-8-3.7-1.9-9-6.7-10.7-10.8a227 227 0 01-8-20 363.7 363.7 0 01-17.3-58v-.5a11.6 11.6 0 013.5-9c3.7-3.8 8.7-5.8 15.1-6.3 9.2-.6 18.8.7 29.5 4a157.3 157.3 0 0136.4 17A82.4 82.4 0 01252 174a59.4 59.4 0 0111.5-8.8c12.7-7.1 28-15 45-18.8a75.2 75.2 0 0121.7-1.5 23.9 23.9 0 0111.7 4.1 14.5 14.5 0 012.6 2.4l.8.8.4.3c1.3 1.3 2.7 3.2 3 7.6v2.5a19.5 19.5 0 010 4c-.5 6.1-5.6 22.3-10.5 37.3l-1.2 3.8-.4 1.4-7 23.9-.2.4c-5.1 11.3-8.7 18-21 23.4l-5.8 2.7c-6.7 3-8.5 3.9-19.1 6.3-3.6.9-14 2.7-20.2 3.8l-4 .7-.7.1a48.7 48.7 0 01-7.8.7zm-88.3-111.4a356.5 356.5 0 0019.2 62.5c1.8 4.7 3.2 8.4 5.6 13.9 1 2.4 4.9 6.2 7.7 7.5 6.2 3 11 5.8 15 8.3 8.6 5 14.7 8.6 27.6 11l2.3.4a79.4 79.4 0 0010.9 1.6 44.4 44.4 0 006.9-.6h.6l4-.8c6.1-1 16.4-2.9 19.8-3.7 10-2.3 11.6-3 18-6l6-2.6c9.7-4.4 12.4-8.8 17.6-20.1l7-23.8.5-1.4 1.2-3.9c2.6-8.1 9.6-29.7 10.2-36.1a13.6 13.6 0 000-2.9l-.1-2.7c-.2-2.4-.7-2.9-1.1-3.3l-.5-.4-.9-1a10.4 10.4 0 00-1.5-1.4 17.6 17.6 0 00-8.6-3.1 69.4 69.4 0 00-20 1.4c-16.3 3.6-31 11.2-43.3 18.2a50.1 50.1 0 00-12 9.7l-2.2 2.7-2.4-2.5a68.9 68.9 0 00-12.6-9.6 151.2 151.2 0 00-35-16.3 72.7 72.7 0 00-27.1-3.7c-5 .3-8.5 1.7-11.2 4.4a5.2 5.2 0 00-1.6 4.3z" fill="#232321"/>
  </g>
  <g data-name="qIVT6s">
    <path d="M182.9 236.8c-1.3-1.9-12-29.5-12.5-31.8l-1 2.5a77.6 77.6 0 00-6.2 29.4c0 2.3.8 4.5.4 6.6a35.7 35.7 0 00-3.9 4.5 26.8 26.8 0 01-17.3 12.6 15.8 15.8 0 00-7.9 5c-3.9 4.3-4.4 9.3-3.5 14.6 1.3 7 2.1 13.9-1 20.6a5.7 5.7 0 00-.3 1.3c-2.4 10.2 1.4 16 11.9 18.6a66.8 66.8 0 0010 1.6c11 .9 21.6 3 31.5 8a46.9 46.9 0 0023.6 4.8c7.2-.3 13.7-2.5 18.6-8.1l3.2-4.5a105.9 105.9 0 0013.3-1.9c7-1.2 14-2.5 21.2-2 9.2.8 18.2 3 27.4 2.4 1.7 4.5 4 8.5 7.6 11.6 8.1 6.8 17.3 7.2 26.9 4.1a45 45 0 0020.2-13.8 48.5 48.5 0 0115.1-11.5l11.2-5.4a44.7 44.7 0 009-5.3c4.8-4 6-8.6 3.6-14.2a30.3 30.3 0 00-6.3-9.3 20.7 20.7 0 01-5.5-10.7l-1.3-5.2c-1.4-6-4-11.2-10.6-13.8l-3.4-5.2c-.6.5-2.5.8-3.2 3.6-.6.8-1.4.5-2.2.5 0-.2-.3-.5-.3-.8.7-3.8-1-6.6-4-8.8a45.3 45.3 0 00-19.9-8.6c-7.5-1.1-11.6 1.9-13 9.2a6.8 6.8 0 01-.3 1c-10 4-12.5 12.8-14 22a126 126 0 00-1.3 15 38.6 38.6 0 01-.9 7.2c-1 4.1-2.1 8.2-3.5 12.3-13.3 9-27.9 14.1-44.4 12.8a52.2 52.2 0 01-23.6-8 3.9 3.9 0 01-1-.7l-8.6-11.4 3.7-.7c5.2-1.3 7.5-5 6.2-10-1-4.8-3.9-8.6-7-12-6-6.6-13.1-11.7-20.7-16.2-4.7-2.8-12.2-6.1-15-10.4m42.3 76.7a16.7 16.7 0 01-12.7 15 28.4 28.4 0 01-9.1 1.2 50 50 0 01-21.8-5.5c-9-4.6-18.7-6.4-28.7-7.3a77.7 77.7 0 01-12.3-1.8 19.7 19.7 0 01-4.5-1.8 6.8 6.8 0 01-3.7-5.7 20.6 20.6 0 011.4-10c2.2-5 1.8-10.2.9-15.3a42.8 42.8 0 01-.9-8.3 11 11 0 016.3-10 28.2 28.2 0 015.8-2.3 22.8 22.8 0 0013.4-9.2 67.8 67.8 0 014.7-6 12.2 12.2 0 0116.7-2.5 23.7 23.7 0 018.4 8.4l10.9 19.3c4 7.5 9.9 13.7 15.2 20.3a72.7 72.7 0 017.6 11.2 17.8 17.8 0 012.4 10.3zM377 298.2a54.8 54.8 0 01-10.6 5.7 70.7 70.7 0 00-25.5 17.6 37.6 37.6 0 01-23.2 12.9c-14.8 2.1-24.4-9.7-23.4-20.3a89 89 0 014.5-19.5 87.8 87.8 0 004.4-25 59.2 59.2 0 012.7-17 17 17 0 015.2-8c.7-.6 1.4-1.4 2.5-1.2.8.7.7 1.7.9 2.6a21 21 0 004.2 9.6A12.3 12.3 0 00331 260a33 33 0 0015.6-7.7l2.2-1.8a22.8 22.8 0 016.3-.2c5.3.6 8.9 3.3 10.7 8.2a84.7 84.7 0 012.7 9.8 22.3 22.3 0 005.5 10.7 31.2 31.2 0 015.8 8.3c2.3 4.7 1.5 7.7-2.7 10.8z" fill="#232321"/>
    <path d="M355.6 240.4l1.3 2c.4-.4.2-.8-1.3-2z" fill="#232321"/>
    <path d="M204.4 331.2a50 50 0 01-21.8-5.4c-9-4.7-18.7-6.4-28.7-7.4a77.7 77.7 0 01-12.3-1.8 19.7 19.7 0 01-4.5-1.8 6.8 6.8 0 01-3.7-5.7 20.6 20.6 0 011.4-10c2.2-5 1.8-10.1.9-15.3a42.8 42.8 0 01-.9-8.2 11 11 0 016.3-10 28.2 28.2 0 015.8-2.4 22.8 22.8 0 0013.4-9.2 67.8 67.8 0 014.7-6 12.2 12.2 0 0116.7-2.5 23.7 23.7 0 018.4 8.4l10.9 19.3c4 7.5 9.9 13.7 15.2 20.3a72.2 72.2 0 017.6 11.2 17.8 17.8 0 012.4 10.3 16.7 16.7 0 01-12.7 15 28.4 28.4 0 01-9.1 1.2zM313.6 243.4c.8.7.7 1.7.9 2.6a21 21 0 004.2 9.6 12.3 12.3 0 0012.2 4.5 33 33 0 0015.6-7.6l2.2-2a22.8 22.8 0 016.3 0c5.3.5 8.9 3.2 10.7 8a84.7 84.7 0 012.7 10 22.3 22.3 0 005.5 10.6 31.2 31.2 0 015.8 8.3c2.3 4.7 1.5 7.7-2.7 10.8a54.8 54.8 0 01-10.6 5.7 70.7 70.7 0 00-25.5 17.6 37.6 37.6 0 01-23.2 12.9c-14.8 2.1-24.4-9.7-23.4-20.3a89 89 0 014.5-19.5 87.8 87.8 0 004.4-25 59.2 59.2 0 012.7-17 17 17 0 015.2-8c.7-.6 1.3-1.4 2.5-1.2z" fill="#fccb03"/>
  </g>
  <path d="M257.5 187.7l-.5 71.5s-.3 2.2.7 2.7 1.2-1.2 1.2-2.4l1.3-75c0-2-2.6.3-2.7 3.2zM242.2 183.8c0 2.8 4.9 75.4 4.9 75.4s-.3 2.1.9 2.7 1.2-1.1 1.3-2.2l-3.6-71c0-2-3.5-7.7-3.5-5z" fill="#fff"/>
  <path d="M266.1 211.4q2.7 1 6.6-.7c3.2-1.3 4.9-3 5-5q.3-2.4-2.8-1.6l-3.1.9c-2 .5-3.6.5-4.6-.1a3.3 3.3 0 01-1.2-3.4 9.9 9.9 0 012.5-5.5 15.5 15.5 0 015.9-4.2c3-1.2 5.5-1.5 7.6-1l-2.3 3.6a10.4 10.4 0 00-5.8.8 8.7 8.7 0 00-2.9 2 4.9 4.9 0 00-1.4 2.8 1.3 1.3 0 00.6 1.4 3.4 3.4 0 002.5 0l2.7-.8c2.2-.6 3.8-.6 4.8.1a3.6 3.6 0 011.2 3.5q-.8 6.3-9 9.9-5.3 2.2-8.9.8zM286.3 188.6l3.4-1.5-.4 4.8 2.5-1-.3 2.4-2.5 1-.8 9c-.2.9.2 1 1 .7l1.3-.5-.2 3-1.8.7a3.4 3.4 0 01-2.9.2c-.7-.3-1-1.1-1-2.3l1-9.4-1.8.7.3-2.4 1.7-.7zM292.9 197.9a15.6 15.6 0 01.8-4 10.5 10.5 0 011.6-2.8 13.8 13.8 0 012-2.2 13.4 13.4 0 013.4-2 8.2 8.2 0 013.2-.7 3.1 3.1 0 011.8.6 2.3 2.3 0 011.2 1.6 11.7 11.7 0 01.1 3.6 16.4 16.4 0 01-.8 4 10.4 10.4 0 01-1.6 2.8 10.5 10.5 0 01-.9 1 7.9 7.9 0 01-1.2 1 12.2 12.2 0 01-3.3 2 7.1 7.1 0 01-3.1.8 3.6 3.6 0 01-1.9-.5 3 3 0 01-1.2-1.7 10.3 10.3 0 01-.1-3.5zm10.6-4.4a12.5 12.5 0 000-2.4 1.5 1.5 0 00-.5-1 1.3 1.3 0 00-1-.4 4.1 4.1 0 00-1.6.4 6.3 6.3 0 00-1.6 1 7 7 0 00-1.3 1.3 6.5 6.5 0 00-.7 1.6 13.3 13.3 0 00-.5 2.5 9.3 9.3 0 000 2.3 2 2 0 00.5 1 2.4 2.4 0 001.1.4 3.8 3.8 0 001.6-.4 6.4 6.4 0 001.7-1 6.8 6.8 0 001.2-1.2 5.4 5.4 0 00.8-1.7 14 14 0 00.3-2.5zM311 182.8l3.4-1.4-.1 1.7a10.8 10.8 0 014.7-3.7 4.8 4.8 0 013.5-.3l-2.8 3.7a3 3 0 00-2.2.2 6.3 6.3 0 00-2.3 1.7 5 5 0 00-1.3 3l-.9 9.3-3.4 1.4z" fill="#232321"/>
  <path d="M321.2 178.6l3.6-1.5 3 9.2h.1l5.1-12.6 3.6-1.6-9 22a9.1 9.1 0 01-2.3 3.2 10.7 10.7 0 01-2.9 1.8l-1.1.5.2-3 1-.4a4.4 4.4 0 001.3-.9 3.5 3.5 0 001-1.3l1.1-3zM190.1 192.8c0 1.9-.7 3.1-2 3.7s-3.3.4-5.5-.4a18 18 0 01-5.4-3 18.7 18.7 0 01-3.6-3.8l-.8-1.2a9.8 9.8 0 01-.6-1.3 43.4 43.4 0 01-1.5-5.4 35.1 35.1 0 01-1-5.1 3.4 3.4 0 01.3-1.9 3.4 3.4 0 012.4-1.7 8.1 8.1 0 014.8.5 18.6 18.6 0 0110.6 9.8l-4.1-1.4a11.2 11.2 0 00-2.3-3 10.5 10.5 0 00-3.4-2 5.5 5.5 0 00-2.3-.4 2.1 2.1 0 00-1.3.6 1.8 1.8 0 00-.6 1.5 24.3 24.3 0 00.8 4.5 30 30 0 001.3 4.6 7.3 7.3 0 001.5 2.3 9.9 9.9 0 001.9 1.7 8.7 8.7 0 002.5 1.3c2.2.8 3.6.3 4.2-1.4zM190 191.1a11.9 11.9 0 01-.5-3.7 2.4 2.4 0 011-1.7 3.1 3.1 0 011.8-.7 8.3 8.3 0 013.3.5 14.9 14.9 0 013.7 2 15.3 15.3 0 012.4 2 11.1 11.1 0 012.1 2.9 19 19 0 011.4 4 12.6 12.6 0 01.4 3.7 2.4 2.4 0 01-1 1.8 2.3 2.3 0 01-.7.4 2.2 2.2 0 01-1 .3 7.4 7.4 0 01-3.3-.6 13.6 13.6 0 01-3.6-1.9 15.9 15.9 0 01-2.5-2 13.5 13.5 0 01-2-3 17.2 17.2 0 01-1.5-4zm11.5 4a17 17 0 00-.8-2.5 5.7 5.7 0 00-1-1.6 6 6 0 00-1.4-1.3 7.3 7.3 0 00-1.9-1 4.3 4.3 0 00-1.6-.2 1.5 1.5 0 00-1 .4 1.8 1.8 0 00-.4 1 10.3 10.3 0 00.4 2.5 13.4 13.4 0 00.8 2.5 8.1 8.1 0 001 1.7 9.7 9.7 0 001.4 1.2 7 7 0 001.8 1 3.9 3.9 0 001.7.3 1.4 1.4 0 001.4-1.6 11.9 11.9 0 00-.4-2.3zM220.3 207.5q-1.4 1.2-4.3.2a12 12 0 01-3-1.6 14.2 14.2 0 01-2.5-2.2 7.8 7.8 0 01-1.5-2.4 27.1 27.1 0 01-1.2-4.2 19.5 19.5 0 01-.7-4 2 2 0 01.5-1.6q1.1-1.5 4.5-.4a11.1 11.1 0 012.7 1.4 23.8 23.8 0 012.5 2.1l-2-8.2 3.7 1.3 5.4 22.6-3.7-1.3zM214 195a3.7 3.7 0 00-2-.3 1 1 0 00-.7.7 4 4 0 00-.1 1.5 17.2 17.2 0 00.3 1.8 18 18 0 00.6 1.8 9.2 9.2 0 00.8 1.8 6.6 6.6 0 001.4 1.6 6.4 6.4 0 002 1.1 3.4 3.4 0 002 .3 1 1 0 00.8-.9 3.8 3.8 0 00.1-1.4 48.2 48.2 0 00-.8-3.6 9.8 9.8 0 00-.8-1.7 5.5 5.5 0 00-1.4-1.6 6.8 6.8 0 00-2.2-1.1zM228.4 205.6a6.8 6.8 0 002 3.4 8.7 8.7 0 003.4 2.1 4 4 0 003.6-.1l3.2 2.9c-1.5 1.1-3.5 1.2-6 .3a16.9 16.9 0 01-3-1.4l-1.4-1a14.9 14.9 0 01-1.5-1.1 14.3 14.3 0 01-2.5-3.2 13.9 13.9 0 01-1.7-4.3 8.5 8.5 0 01-.2-3.7 2.9 2.9 0 011.1-2 3.6 3.6 0 012.2-.5 8.8 8.8 0 012.5.5 15.7 15.7 0 015.8 3.7 12 12 0 013.4 5.8l.6 2.6zm7.2 0a7.3 7.3 0 00-1.9-3.2 7.6 7.6 0 00-3-1.9 2.9 2.9 0 00-2.5 0c-.5.4-.7 1.2-.5 2.5z" fill="#232321"/>
</svg>
